<?xml version="1.0" encoding="iso-8859-1"?>
<!-- Generator: Adobe Illustrator 28.3.0, SVG Export Plug-In . SVG Version: 6.00 Build 0)  -->
<svg version="1.1" id="Layer_1" xmlns="http://www.w3.org/2000/svg" xmlns:xlink="http://www.w3.org/1999/xlink" x="0px" y="0px"
	 width="128px" height="128px" viewBox="0 0 128 128" enable-background="new 0 0 128 128" xml:space="preserve">
<g>
	<path d="M112.86,80.021v-0.308h-0.308v-0.615h-0.308V78.79h-0.308v-0.615h-0.615v-0.308h-0.308V77.56h-0.308v-0.308h-0.615v-0.308
		h-0.308v0.308h-0.923v0.308h-0.923v0.615h-0.615v0.615h-0.308v0.308h-0.615v0.923h-0.308v0.308h-0.923v0.308h-0.308v0.308h-0.615
		v-0.308h-0.308v-0.923h-0.308v-0.308h0.308v-1.231h-0.308v-0.308h-0.308v-0.923h-0.615v-0.308h-0.615v-0.308h-0.615v-0.308h-0.615
		v-0.308h-0.615v-0.308h-1.231v0.308h-1.231v0.308h-0.308v-0.308h-0.308v0.308H96.86v0.308h-0.615v0.308H95.63v0.308h-0.615v0.308
		h-0.308v0.308h-0.615v0.615h-0.615v0.308h-0.308v0.308H92.86v0.308h-0.615v0.615h-0.308v-0.308h-0.923v-0.308h-0.615v-1.231h-0.615
		V77.56h-0.615v-0.308h-0.615v-0.308h-0.615v-0.615H87.63v-0.308h-0.615v-0.308h-0.615v-0.308h-1.231v-0.308h-0.923v0.308h-1.846
		v0.308H80.86v0.308h-0.923v0.308h-1.231v0.308h-0.923v0.308h-0.308v-0.308h-0.308v-0.308h-0.615v-0.308h-0.308v-0.308h-0.308
		v-0.615h0.308v-0.615h-0.308v-0.615h0.308V73.56h-0.308v-0.923H75.63v-2.769h0.308v-0.615h0.923v-0.308h1.538v0.308h0.308v-0.308
		h0.308v0.308h0.615v0.308h0.308v-0.308h0.308v0.308h1.846v0.308h0.308V69.56h0.308v-0.308h1.231v-0.308h0.308v-0.308h0.308v-0.615
		h0.308v0.308h0.308v-0.308h0.308v-0.308h0.308v-0.308h0.615v-0.308h1.231V66.79h0.615v-0.308h0.308v0.308h0.615v-0.615h0.308v0.308
		h0.923v0.308h0.308v-0.308h0.308v0.308h0.615v0.308h0.923v0.308h0.615v0.308h0.308v0.308h0.615v0.308h0.615v0.308h0.923v0.308
		h0.308v0.308h0.615v0.308h1.231v0.308h0.308V69.56h1.231v-0.308h0.308v0.308h0.615v-0.308h0.615v-0.308h0.308v-0.308h0.615v-0.308
		h0.923v-0.308h0.923v-0.308h-0.308v-0.308h0.615v-0.308h0.308V66.79h0.615v-0.308h0.308v-0.308h0.308V65.56h0.308v-0.308h0.308
		v-0.308h0.615v-0.308h0.308v-0.308h0.615v-0.308h0.308v-0.615h0.615v-0.308h0.308V62.79h-0.308v-0.615h0.308v-1.231h-0.308v-0.308
		h0.308v-0.308h-0.308v-0.308h-0.308v-0.615h-0.308v-0.308h-0.923V58.79h-2.154v0.308h-0.615v0.308h-0.923v0.308h-0.615v0.308
		h-0.308v0.308h-0.308v-0.308h-0.308v-0.923h0.308V58.79h-0.308v-0.615h-0.308v-0.308h-0.308V57.56h-0.308v-0.308h-0.308v-0.308
		h-0.308v-0.615H99.63v-0.308h-1.231v-0.308h-0.923v-0.308h-0.308v0.308H96.86v-0.308h-0.308v0.308H95.63v0.308h-1.538v0.308h-0.615
		v0.308H92.86v0.308h-1.538v0.308h-0.923v0.308h-0.923v-0.308h-0.308v0.615h-1.846V57.56h-0.615v-0.308h-1.231v-0.308h-0.923v-0.615
		H83.63v-0.308h-0.615v-0.308h-0.308v-0.308h-0.615v-0.308h-0.308V54.79h-1.231v-0.308h-0.615v0.308h-1.231v-0.308h-1.231v0.308
		h-1.231v0.308h-0.308v0.308h-0.923v-0.308h-0.308v0.308h-0.615v0.308h-0.615v-0.308h-0.923V54.79h-0.615v-0.308h-0.615V53.56
		h-0.308v-0.615h0.615v-0.308h0.615v-0.308h0.923v-0.308h0.615v-0.308h0.308v-0.308h0.923V50.79h0.615v0.308h0.308v-0.615h0.308
		v-0.308h0.308v-0.308h0.308V49.56h0.308v-0.615h0.308v-0.615h0.308v-3.385h-0.308v-0.308h0.308v-0.923h-0.308V42.79h-0.308v-0.308
		H76.86V41.56h-0.615v-0.615h-0.308v-0.308h-0.615v-0.615h-0.615v-0.308h-0.308v-0.308h-0.615v-0.308h-0.615V38.79h-0.615v-0.615
		h-0.615v0.308H71.63v-0.308h-0.615v-0.308h-0.615V37.56h-0.923v-0.308h-1.231v-0.308h-1.231v-0.308h-0.308v0.308h-0.308v-0.308
		h-3.077v0.308h-1.538v0.308h-0.615v0.308h-0.615v0.308h-0.615v0.308H59.63v0.308h-0.308v0.308h-0.615v0.615h-0.308v0.308h-0.308
		v0.308h-0.308v0.308h-0.308v0.308h-0.308v0.615H56.86v0.308h-0.308v0.923h-0.615v0.308h0.308v0.308h0.308v0.308h-0.308v0.308
		h-0.308v0.308h0.308v0.615h0.308v0.308h-0.308v0.615h0.308v1.538h0.308v0.615h0.308v0.308h0.308v0.615h0.308v0.615h0.308v0.308
		h0.308v0.308h0.308v0.615h0.308v0.923h0.308v0.615h-0.308v0.308h-0.308v0.308h-0.923v-0.308h-0.308v0.308H56.86v0.308h-2.154
		v-0.308h-0.308v0.308h-0.308v-0.615h-0.308v0.308h-0.308v-0.615h-0.923v-0.308h-0.308v0.308h-0.308v-0.308h-0.615v-0.308h-0.308
		v0.308h-0.308v-0.308h-0.923v0.308h-0.308v-0.308H48.86v0.308h-0.615v0.308h-0.308v-0.308H47.63v0.308h-0.615v0.308h-0.615v0.308
		h-0.615v0.308h-0.308v0.308h-0.308v0.308H44.86v0.308h-0.615v0.308h-0.923v0.308h-0.615v0.308h-0.615v0.308h-0.923v0.308H40.86
		v-0.308h-0.308V54.79h-1.538v-0.308h-0.923v-0.308h-0.615v-0.308h-0.308v0.308H36.86V53.56h-0.615v-0.308H35.63v-0.308h-1.231
		v-0.308h-0.308v-0.308h-1.538v-0.308h-1.231v0.308h-0.308v-0.308h-0.615v-0.308h-0.308v0.308h-0.923v-0.308h-0.923v0.308h-1.538
		v0.308h-1.538v0.308H24.86v0.308h-0.308v-0.308h-0.308v0.308h-0.923v0.308h-0.308v0.308h-0.615v0.308h-0.308v0.308h-0.615v0.308
		h-0.308v0.308h-0.923v0.308h-0.923v0.308h-0.308v0.308h-0.615v0.308h-0.308v0.308h-0.308v0.308h-0.308v0.308H16.86v0.308h-0.308
		v0.615h-0.615v1.846h0.308v1.231h0.615v0.308h0.308v0.615h0.308v0.308h-0.308v0.308h1.846v0.308h0.923v-0.308h0.615v-0.308h0.923
		v-0.308h0.308V61.56h0.615v-0.308h0.308v-0.308h0.308v-0.308h0.308v0.308h0.615v0.308h-0.615v1.846h-0.308v1.231h0.308v1.231h1.231
		v0.308h0.923v0.308h0.615v-0.308h0.923V65.56h0.615v-0.308h0.308v-0.308h0.923v-0.308h0.308v-0.308h1.231v-0.308h0.308v0.308h0.923
		v0.308h0.308v-0.308h0.923v0.308h1.231v0.308h0.615v0.308h0.615v0.308h0.308v0.308h1.538v0.308h1.231v0.308h1.231v0.308h0.308
		v-0.308h0.615v-0.308h0.923v-0.308h0.923V65.56h0.923v-0.308h0.615v-0.308h0.615v-0.308h0.923v-0.308h0.615v-0.308h0.615v-0.308
		h0.308v0.308h0.308v-0.308h0.615v-0.308h0.923v0.308h1.231v0.308h0.308v0.308h0.923v0.308h0.308v0.615h0.615v0.308h0.615v0.308
		h0.615v0.308h0.308v0.308h0.923v0.308h0.923v0.308h0.615v0.308h0.615v-0.308h0.308v0.308h0.308v0.308h0.308v-0.308h0.615v0.615
		h0.615v0.615h0.308v0.308h-0.308v0.308h0.308v0.615h0.308v0.308h-0.308v0.615h0.308v0.615h-0.615v0.615h0.308v0.308h-0.308v0.308
		h-0.308v0.923h-0.308v0.923h-0.308v1.231h-0.308v1.231h-0.308v0.308h-0.308v0.308h0.308v0.308H56.86v0.308h-0.308v0.308h-0.615
		v0.308h-0.615v-0.308h-0.615v-0.308h-1.231V77.56h-1.231v-0.308h-0.308v-0.308h-1.538v-0.308h-0.308v-0.308h-0.308v0.308h-0.308
		v-0.308h-1.538v0.308h-0.615v-0.308h-0.615v0.308h-0.308v-0.308h-0.308v0.308h-0.615v0.308h-0.923v0.308h-0.308v0.308h-0.923v0.615
		h-0.308v-0.308h-0.308v0.308h-1.231v0.308h-0.308v-0.308h-0.923v-0.308h-0.308V77.56H39.63v0.308h-0.308V77.56h-0.615v-0.308
		h-0.308v-0.308h-0.923v-0.308h-0.923v-0.308H35.63v-0.308h-1.846v-0.308h-0.615v0.308H32.86v-0.308h-0.308v0.308h-1.538v0.308
		h-1.231v0.308h-0.308v0.308H28.86v0.308h-0.615v0.615h-0.923v0.308h-0.308v0.308h-0.308v0.308h-0.615v0.308h-0.308V78.79h-0.308
		v0.308h-0.308v0.308h-0.615v0.615h-0.308v1.231h-0.308v0.615h-1.231v-0.615h-0.308v-0.308h-0.308v-0.923h-0.308v-0.615h-0.308
		v-0.308h0.308V78.79h-0.308V77.56h-0.308v-0.615H20.86v-0.308h-0.308v-0.615h-0.615v-0.308h-0.923v-0.308h-0.615v-0.308h-2.154
		v0.308h-0.923v0.308h-0.615v0.308h-0.308v0.615h-0.308v0.308h-0.308v0.308h-0.308v0.615h-0.308v2.154H12.86v0.615h0.308v0.923
		H12.86v0.308h0.308v0.923h0.308v0.308h-0.308v0.308h0.308v1.538h0.615v1.231h0.308v0.308h0.308v0.923h0.615v0.615h0.615v0.308
		h0.308v0.308h0.308v0.615h0.308v0.308h0.308v0.308h0.308v0.308h0.308v0.308h0.308v0.308h1.231v0.308h1.538v0.308h3.385v-0.308
		h1.231V90.79h0.923v-0.308h0.308v-0.308h0.615v-0.308h0.308V89.56h0.308v-0.308h0.615v-0.308h0.308v0.308h1.538v0.615h0.615v0.308
		h0.308v0.308h0.308v0.308h0.308v0.308h0.923v0.308h0.615v0.308h0.615v-0.308h0.308v0.308h0.615v0.308h0.308v-0.308h0.615v0.308
		h0.308v-0.308h0.308v-0.308h0.308v-0.308h0.615V90.79h0.308v-0.308h0.923v-0.308h0.308V89.56h0.308v-0.308h1.231v-0.308h0.615
		v-0.308h1.231v0.308h0.615v0.308h0.615v0.308h0.308v0.308h0.615v0.308h1.231v0.308h0.308v0.308h0.308v-0.308h0.923v-0.308h0.615
		v-0.308h0.923V89.56h0.615v-0.308h0.615v-0.308h0.615v-0.615h0.308v-0.308h0.923v-0.923h0.308v0.615h1.846v0.308h0.923v0.615h0.308
		v0.308h0.615v0.308h0.308v0.308h0.308v0.615h0.308v0.308h0.923v0.308h0.308v0.308h0.308v0.308h1.231v0.308h0.615v0.308h0.615v0.308
		h0.615v-0.308h0.615v-0.308h0.923v-0.308h0.308v-0.308h0.615V90.79h0.615v-0.308h0.308v-0.308h0.615v-0.308h0.308V89.56h0.308
		v-0.308h0.615v-0.308h0.308v-0.308h0.615v-0.615h0.615v-0.308h0.615v-0.308h0.308v-0.308h0.923V86.79h1.231v-0.308h0.308v0.308
		h0.615v-0.308h0.923v-0.308h0.308v0.308h0.615v-0.308h0.923v0.308h0.923v0.308h1.846v0.308h0.615v0.308h0.308v0.308h0.615v0.308
		h0.615v0.308h0.308v-0.308h0.308v0.615h0.308v0.308h0.923v0.308h1.231v0.308h0.923v0.308h0.923v0.308h0.615v-0.308h0.308v0.308
		h1.538v0.308h0.923v-0.308h2.154v-0.308h1.231V89.56h0.308v-0.308h0.615v-0.615h0.308v-0.308h0.615v-0.308h0.308v-0.308h0.923
		v-0.308h1.538v0.308h0.308v-0.308h0.923v-0.308h0.308v0.308h0.615v0.308h0.615v-0.308h0.308v0.308h0.615v0.308h1.538v0.308h1.538
		v0.308h0.308v-0.308h0.308v0.308h2.154v0.308h0.308v-0.308h1.231v-0.308h0.308v-0.308h0.923v-0.615h0.308v-0.308h0.308V86.79h0.308
		v-0.308h0.615v-0.308h0.308v-0.308h0.308V85.56h0.308v-0.308h0.308v-0.308h0.615v-0.615h-0.308v-0.308h0.615v-0.923h0.308v-0.923
		h0.308v-1.231h-0.308v-0.923H112.86z M76.86,47.713h0.308v0.308H76.86V47.713z M75.937,76.944v0.308H75.63v-0.308H75.937z
		 M51.014,52.636h0.308v0.308h-0.308V52.636z M24.245,57.56H23.63v0.308h-0.615v0.308h-0.923v0.615h-0.308v0.308h-0.308v0.308H20.86
		v0.615h-0.923v0.308h-0.615v0.308h-0.308v-0.615h-0.615V58.79h0.308v0.308h0.308V58.79h0.308v-0.308h0.615v-0.308h0.308v-0.308
		h0.615V57.56h1.231v-0.308h0.615v-0.308h0.615v0.308h0.308v-0.308h0.308v0.308h0.308V57.56z M54.399,80.329h0.308v0.308h-0.308
		V80.329z M110.399,81.252h-0.308v1.231h-0.308v0.615h-0.308v0.308h-0.308v0.308h-0.308v0.308h-0.615v0.615h-0.308v0.308h-0.615
		v0.308h-0.308v0.308h-0.308v0.308h-0.615v0.308h-0.308v-0.308h-0.308v0.308h-0.923v-0.308h-1.846v-0.615h-0.308v0.308h-0.308
		v-0.308h-0.308v0.308h-0.308v-0.308h-0.308v-0.308h-0.923v-0.308H99.63v-0.308h-0.308v0.308h-0.923v-0.308h-0.308v0.308h-0.923
		v0.308H96.86v-0.308h-0.308v0.308h-0.308v-0.308h-0.923v0.308h-0.308v-0.308h-0.615v0.308h-0.308v0.308h-0.923v0.308h-0.615v0.615
		h-0.615v0.308H91.63v0.308h-0.308v0.308h-0.308v0.308h-0.308v-0.308h-0.308v0.308h-0.308v0.308h-0.308v-0.308h-0.615v0.308h-1.231
		v-0.308h-2.769v-0.308h-0.615V86.79h-1.538v-0.308h-0.308v-0.308h-0.615v-0.308h-0.308V85.56H80.86v-0.615h-0.923v-0.308H79.63
		v0.308h-0.308v-0.308h-0.615v-0.308h-0.308v0.308h-0.308v-0.308h-0.615v-0.308h-1.538v-0.308h-0.923v0.308h-0.308v-0.308h-0.923
		v0.308h-1.538v0.308h-0.308v-0.308H71.63v0.308h-1.231v0.308h-0.308v-0.308h-0.308v0.308h-0.615v0.308h-0.615v0.308h-0.615v0.308
		h-0.615v0.308h-0.615v0.615h-0.308v0.308h-0.615v0.308h-0.615v0.615H64.86v0.308h-0.615v0.308h-0.308v0.308H63.63v0.308h-0.615
		v0.308h-0.615v0.308h-0.615v-0.308H60.86v-0.308h-0.615v-0.308H59.63v-0.308h-0.308v-0.308h-0.615v-0.308h-0.308v-0.615h-0.615
		v-0.615h-0.615v-0.308H56.86v-0.308h-0.308V85.56h-1.231v-0.308h-1.231v-0.308H52.86v0.308h-1.846v0.308h-0.308v0.308h-0.308v0.615
		h-0.615v0.308h-0.615v0.308h-0.615v0.308H47.63v0.308h-1.538v-0.308h-0.308v-0.308h-0.308V86.79H44.86v-0.308h-0.615v-0.308h-1.538
		v-0.308h-0.308v0.308h-0.308v-0.308h-0.308v0.308h-0.308v-0.308h-0.308v0.308h-1.231v0.308H39.63v0.308h-0.615v0.308h-0.615v0.308
		h-0.308v0.308h-0.308v0.308h-0.615v0.308h-0.615v0.308h-0.615v0.308H35.63v-0.308h-0.615v0.308h-0.615v-0.308h-0.308v-0.308h-0.308
		v-0.308h-0.615v-0.308H32.86v-0.308h-0.615v-0.308h-0.308V86.79h-0.923v-0.308h-0.308v-0.308h-0.615v-0.308h-0.308v0.308h-0.308
		v-0.308h-0.308v0.308H28.86v-0.308h-0.308v0.308h-0.615v0.308h-1.231v0.615h-0.308v0.308h-0.615v0.615h-0.615v0.308h-0.615v0.308
		h-0.308v-0.308H23.63v0.308h-0.308v-0.308h-0.308v0.308h-1.231v-0.308h-0.615v-0.308h-0.615v0.308h-0.308v-0.308H19.63v-0.308
		h-0.308v-0.615h-0.308v-0.615h-0.615v-0.308h-0.308v-0.308h-0.308V85.56h-0.308v-0.308h-0.308v-0.308H16.86v-0.308h-0.308v-1.538
		h-0.308V82.79h-0.308v-1.846h0.308v-0.308h-0.308v-2.154h0.615v-0.308h0.308v-0.308h0.615V77.56h0.308v0.308h0.615v0.308h0.308
		v0.308h0.308v0.923h0.308v0.308h-0.308v0.615h0.308v0.308h0.308v0.308h-0.308v0.308h0.308v0.615h0.308v0.308h0.308v0.615h0.308
		v0.308h0.308v0.615h0.308v0.308h0.308v0.308h1.231v0.308h0.308v0.308h0.615v-0.308h0.308v0.308h0.615v-0.308h0.615v-0.308h0.308
		v-0.308h0.308v-0.308h0.308v-0.615h0.308V82.79h0.308v-0.308h0.308v-0.615h-0.308V81.56h0.615v-0.308h0.308v-0.308h0.615v-0.308
		h0.308v0.308h0.308v-0.923h0.615v-0.308h0.615v-0.308h0.308v-0.308h1.231V78.79h0.615v-0.308h2.769v0.308h1.231v0.308h0.308v0.308
		h1.231v0.308h0.308v-0.308h0.308v0.308h0.615v0.308h0.308v0.308h0.615v0.308h0.308v-0.308h0.308v0.308h2.462v-0.308h0.615v0.308
		h0.308v-0.308h0.308v-0.308h0.615v-0.308h0.615v-0.308h0.308v-0.308h0.308v0.308h0.308v-0.308h2.769V78.79h0.308v0.308h0.615v0.308
		h1.538v0.308h0.615v0.308h0.308v0.308h0.308v0.308h0.308v-0.308h0.308v0.308h0.308v0.308h0.923v0.308h2.154v-0.308h0.308v-0.308
		h0.615v-0.308h0.615v-0.308h0.308v-0.308h0.308v-0.308h0.923V78.79h0.308v-0.308h0.308v-0.308h-0.308v-0.308h0.308v-1.231h0.308
		v-0.308h-0.308v-0.308h0.308v-0.615h0.308v-1.538h0.308v-0.615h0.308v-0.308h0.308v-0.615h0.308v-0.923h-0.615v-0.308h0.308V70.79
		h0.308v-0.615h-0.308v-0.308h0.308v-1.538h-0.308v-0.615h-0.308v-0.308h0.308v-0.308h-0.308V66.79h-0.308v-0.308h-0.308v-0.615
		H60.86V65.56h-0.308v-0.308h-0.615v-0.308h-0.923v-0.308h-1.231v-0.308H56.86v-0.308h-0.923v-0.308h-0.615v-0.308h-0.308v-0.308
		h-0.615V62.79h-0.615v-0.615h-0.615v-0.308h-0.615V61.56h-0.308v-0.308h-0.923v-0.308h-0.615v-0.308h-0.308v0.308h-0.308v-0.308
		h-0.308v-0.308h-0.308v0.308H48.86v-0.308h-0.615v0.308h-0.308v-0.308H47.63v0.308h-0.923v0.308h-0.923v0.308h-0.615v0.308h-1.231
		v0.308H43.63v0.308h-0.308v0.308h-0.615v0.308h-0.615v0.308h-0.615v0.308h-1.538v0.308h-0.615v0.308h-0.308v-0.308h-0.615v-0.308
		h-0.615v-0.308H36.86V62.79h-0.308v-0.308H35.63v-0.308h-0.308v-0.308h-0.615V61.56h-0.308v-0.308h-0.308v0.308h-0.923v-0.308
		H32.86v0.308h-0.308v-0.308h-0.615v0.308H31.63v-0.308h-0.615v0.308h-0.308v-0.308h-0.308v0.308h-0.615v-0.308h-0.308v0.308H28.86
		v0.308h-0.615v0.308H27.63v0.308h-0.308v0.308h-0.308v0.308h-0.308v0.308h-0.308v-0.308h-0.308V62.79h0.308v-0.615h0.308V61.56
		h0.308v-0.923h0.308v-1.231h-0.308v-0.923h-0.308V57.56h-0.308v-0.308h0.308v-0.308h-1.231v0.308h-0.308v-0.308h0.308v-0.615
		h-0.308v-0.308H24.86v-0.308h-0.308v0.308h-0.615v0.308h-0.923v-0.308h0.615v-0.308h0.308v-0.308h0.923v-0.308h0.615V54.79h0.615
		v0.308h0.308V54.79h0.923v-0.308h0.308v-0.308h0.308v0.308h2.462v0.308h0.308v-0.308h0.615v0.308h1.846v0.308h0.615v0.308h0.615
		v0.308h0.308v0.308h0.923v0.308h0.615v0.308h0.615v0.615h0.308v-0.308h0.615v0.308h0.923v0.308h0.308v0.308h0.615V57.56h0.308
		v0.308h0.615V57.56h0.308v0.308h0.308V57.56h0.615v0.308h0.308V57.56h0.615v-0.308h0.615v-0.308h1.231v-0.308h0.308v-0.308h0.308
		v0.308h0.308v-0.308h0.308v-0.615h1.231v-0.615h0.923V54.79h0.615v-0.308h0.615v-0.308h0.615v0.308h1.231v0.308h0.923v0.308h0.615
		v0.308h1.538v0.308h1.538v-0.308h0.308v0.308h1.538v0.308h0.308v-0.308h0.923v-0.308h0.308v0.308h0.308v-0.308h0.615v-0.308h0.615
		V54.79h0.308v-0.615h0.308V53.56h0.308v-0.615h0.615v-0.308h-0.308v-0.308h0.308v-0.308h0.308V50.79h0.308v-0.308h-0.308V49.56
		h-0.615v-0.308h-0.308v-0.308h-0.308v-0.308H60.86v-0.308h-0.308v-0.308h-0.308v-0.923H59.63v-0.923h-0.308v-0.308h-0.308v-1.538
		h-0.308v-0.308h0.308v-0.308h-0.308v-0.308h0.308v-0.923h0.308v-0.615h0.308V41.56h0.308v-0.308h0.308v-0.615h0.308v-0.308h0.308
		v-0.308h0.615v-0.308h0.308v-0.308h1.538v-0.308h1.846V38.79h0.308v0.308h0.308V38.79h0.308v0.308h0.923v0.308h0.308v-0.308h0.615
		v0.308h0.923v0.308h0.923v0.308h0.615v0.308h0.308v0.308h0.308v-0.308h0.308v0.308h0.615v0.308h0.308v0.308h0.615v0.308h0.308
		v0.308h0.615v0.308h0.308v0.308h0.615v0.615h0.308v0.308h0.308v1.231h0.308v2.154h-0.308v0.308h0.308v0.308h-0.308v0.308h-0.308
		v0.308h-0.308v0.615h-0.615v0.308h-0.308v0.308h-0.308v0.308H72.86v0.308h-0.615v0.308h-0.308v-0.308H71.63v0.308h-0.308v0.308
		h-1.231v0.615h-0.308v0.308h-0.308v0.308h-0.308v0.308H68.86v0.308h-0.308v0.615h-0.308v1.231h0.308v1.538h0.308v0.308h0.308v0.308
		h0.308v0.308h0.308v0.308h0.615v0.308h0.923v0.308h0.308v0.308h0.615v0.615h0.308v-0.308h3.077v-0.308h0.308V57.56h0.923v-0.308
		h1.538v-0.308h0.615v0.308h0.308v-0.308h0.923v0.308h0.923v0.308h0.308v0.308h0.923v0.615h0.615v0.308h0.615v0.308h0.923v0.308
		h0.615v0.308h1.846v0.308h0.615v0.308h0.308v-0.308h0.615v0.308h0.308v-0.308h1.231v-0.308h0.308v0.308h0.308v-0.308h0.615v-0.308
		h1.846v-0.308h0.615V58.79h0.923v-0.308h0.308v-0.308h2.154v-0.308h0.615v0.308h0.308v0.308h0.308v0.308h0.615v0.308h0.308v2.462
		h0.308v1.538h0.308V62.79h0.308v0.308h0.615v0.308h0.615v-0.308h0.308v0.308h0.308v-0.308h0.923V62.79h0.923v-0.923h0.615V61.56
		h1.846v0.308h-0.923v0.308h-0.308v0.308h-0.308v0.308h-0.308v0.615h-0.308v0.615h-0.615v0.308h-0.308v0.308h-0.308v-0.308h-0.308
		v0.923h-0.308v0.308h-0.308v0.308h-0.308v0.308h-0.615v0.308h-0.923v0.308h-0.923v0.308h-1.538V66.79h-0.615v-0.308h-0.615v-0.308
		H95.63v-0.308h-0.308V65.56h-0.615v-0.308h-0.923v-0.308h-0.308v-0.308h-0.923v-0.308h-2.154v-0.308h-0.308v0.308h-0.308v-0.308
		h-0.615v0.308h-1.231v0.308h-1.846v0.308h-0.615v0.308h-0.308v0.308h-0.923v0.308h-0.308v0.308h-0.615v0.615h-0.308v0.308H80.86
		V66.79h-1.538v-0.308h-0.615v0.308h-0.308v-0.308h-0.308v-0.308h-0.308v0.308h-1.846v0.615H75.63V66.79h-0.615v0.308h-0.308v0.308
		h-0.615v0.308h-0.308v0.308h-0.308v0.308H72.86v1.231h-0.308v0.615h0.308v0.615h-0.308v0.308h0.308v0.615h0.308v2.154h0.308v0.308
		h-0.308v0.308h0.308v1.846h0.308v0.308h-0.615v0.308h0.308v0.308h0.308v0.615h0.615v0.308h0.308v0.308h0.308v0.308h0.923v0.308
		h0.308v0.308h0.308v-0.308h0.615v0.308h1.231v-0.308h0.923v0.308h0.615v-0.308h0.615v-0.615h0.615v-0.308h0.308v0.308h0.923v-0.308
		h0.308v0.308h0.308v-0.308h0.923v-0.308h0.923v0.308h1.538v0.308h0.615v0.308h0.308v0.308h0.308v0.615h0.308v0.308h0.615v0.615
		h0.308v0.308h0.615v0.308h0.615v0.615h1.538v0.308h0.308v-0.308h0.308v0.308h0.308v-0.308h1.231V81.56h0.308v-0.308h0.615v-0.308
		h0.308v-0.923h0.615v-0.308h0.308v-0.308h0.615V78.79h0.923v-0.308h0.923v-0.308h1.846v0.308h0.308v0.308h0.615v0.615h-0.308v0.308
		h0.308v0.615h0.308v1.231h0.308v0.615h0.308v0.308h0.308v0.308h0.308v0.615h0.308v0.308h1.538v0.308h0.615v-0.308h0.308v-0.308
		h0.923v-0.308h0.615V82.79h0.308v-0.308h0.308v-0.308h0.308v-0.308h0.308V81.56h0.308v-0.308h0.308v-0.308h0.308v-0.308h0.308
		v-0.615h0.308v0.308h0.308v0.308h0.308V81.252z M70.706,56.329v0.308h-0.308v-0.308H70.706z"/>
	<rect x="28.553" y="60.944" width="0.308" height="0.308"/>
	<rect x="75.014" y="47.098" width="0.308" height="0.308"/>
</g>
</svg>
